<svg width="348" height="19" viewBox="0 0 348 19" fill="none" xmlns="http://www.w3.org/2000/svg">
<g clip-path="url(#clip0_1_394)">
<path fill-rule="evenodd" clip-rule="evenodd" d="M11.7139 14.0551L5.94621 17.8345L7.75828 11.1812L2.38161 6.86377L9.26917 6.53118L11.7139 0.0834961L14.1585 6.53118L21.0461 6.86377L15.6694 11.1812L17.4815 17.8345L11.7139 14.0551Z" fill="#FFC54F"/>
</g>
<g clip-path="url(#clip1_1_394)">
<path fill-rule="evenodd" clip-rule="evenodd" d="M38.8489 14.0551L33.0813 17.8345L34.8933 11.1812L29.5167 6.86377L36.4042 6.53118L38.8489 0.0834961L41.2936 6.53118L48.1812 6.86377L42.8045 11.1812L44.6166 17.8345L38.8489 14.0551Z" fill="#FFC54F"/>
</g>
<g clip-path="url(#clip2_1_394)">
<path fill-rule="evenodd" clip-rule="evenodd" d="M65.984 14.0551L60.2163 17.8345L62.0284 11.1812L56.6517 6.86377L63.5393 6.53118L65.984 0.0834961L68.4287 6.53118L75.3162 6.86377L69.9396 11.1812L71.7516 17.8345L65.984 14.0551Z" fill="#FFC54F"/>
</g>
<g clip-path="url(#clip3_1_394)">
<path fill-rule="evenodd" clip-rule="evenodd" d="M93.1191 14.0551L87.3514 17.8345L89.1635 11.1812L83.7868 6.86377L90.6744 6.53118L93.1191 0.0834961L95.5637 6.53118L102.451 6.86377L97.0746 11.1812L98.8867 17.8345L93.1191 14.0551Z" fill="#FFC54F"/>
</g>
<g clip-path="url(#clip4_1_394)">
<path fill-rule="evenodd" clip-rule="evenodd" d="M120.254 14.0551L114.487 17.8345L116.299 11.1812L110.922 6.86377L117.809 6.53118L120.254 0.0834961L122.699 6.53118L129.586 6.86377L124.21 11.1812L126.022 17.8345L120.254 14.0551Z" fill="#FFC54F"/>
</g>
<defs>
<clipPath id="clip0_1_394">
<rect width="19.625" height="17.9896" fill="white" transform="translate(1.90135 0.0834961)"/>
</clipPath>
<clipPath id="clip1_1_394">
<rect width="19.625" height="17.9896" fill="white" transform="translate(29.0364 0.0834961)"/>
</clipPath>
<clipPath id="clip2_1_394">
<rect width="19.625" height="17.9896" fill="white" transform="translate(56.1715 0.0834961)"/>
</clipPath>
<clipPath id="clip3_1_394">
<rect width="19.625" height="17.9896" fill="white" transform="translate(83.3066 0.0834961)"/>
</clipPath>
<clipPath id="clip4_1_394">
<rect width="19.625" height="17.9896" fill="white" transform="translate(110.442 0.0834961)"/>
</clipPath>
</defs>
</svg>
